<svg xmlns="http://www.w3.org/2000/svg" viewBox="0 0 1042.34 264.62"><title>アセット 7</title><g id="レイヤー_2" data-name="レイヤー 2"><g id="レイヤー_1-2" data-name="レイヤー 1"><path d="M93.47,264.62a158.55,158.55,0,0,1-27.79-2.49A163.29,163.29,0,0,1,39,255a136.92,136.92,0,0,1-23.87-11.33A97.28,97.28,0,0,1,.21,232.72a.65.65,0,0,1,0-.94l45.48-45.2a.61.61,0,0,1,.86,0,53.8,53.8,0,0,0,6.73,5.52,75.2,75.2,0,0,0,13,7.29,88.39,88.39,0,0,0,13.61,4.69,54.17,54.17,0,0,0,13.24,1.81c8.88,0,16.21-1.67,21.77-4.95a18.63,18.63,0,0,0,9.74-16.78c0-6-2.62-11.24-7.78-15.69-4.56-3.92-12.45-7.73-24.13-11.66a174.93,174.93,0,0,1-23.72-10,74.8,74.8,0,0,1-18.55-13.23,54.48,54.48,0,0,1-12-18.14c-2.91-7-4.39-15.84-4.39-26.14A86.64,86.64,0,0,1,41.3,53.9,82.84,82.84,0,0,1,61.9,25.7,98.62,98.62,0,0,1,94.05,6.85,121,121,0,0,1,135.51,0a133.94,133.94,0,0,1,24.67,2.3,141.08,141.08,0,0,1,23.08,6.38,116.7,116.7,0,0,1,20,9.67,70.36,70.36,0,0,1,11.1,8.37.65.65,0,0,1,0,.92L171.93,71.7a.61.61,0,0,1-.86,0,50.61,50.61,0,0,0-12.4-8.57A53,53,0,0,0,134.83,58,39.34,39.34,0,0,0,115,63.11c-6.74,3.86-10.3,10.12-10.3,18.1A17.91,17.91,0,0,0,113.6,97c4.67,2.92,11.25,5.85,20.1,8.95a167,167,0,0,1,27.07,12.11,82.16,82.16,0,0,1,19.54,15.19,61.18,61.18,0,0,1,12.08,19.32,67.36,67.36,0,0,1,4.24,24.58c0,15.66-3.2,29.14-9.51,40.05a83.6,83.6,0,0,1-24.52,27,106.49,106.49,0,0,1-33.29,15.42A137.84,137.84,0,0,1,93.47,264.62Z"/><path d="M367.38,260.74a.64.64,0,0,1-.58-.38l-48.55-109.9h-1.54L294.32,260.23a.63.63,0,0,1-.62.51H228.33a.63.63,0,0,1-.62-.76L279.24,9.69a.63.63,0,0,1,.62-.51h65a.63.63,0,0,1,.62.76L325,109.47h3.29l81.06-100a.63.63,0,0,1,.49-.24h80.8a.63.63,0,0,1,.47,1.06L383,129.56l67,130.26a.63.63,0,0,1-.56.92Z"/><path d="M872.94,260.74a.64.64,0,0,1-.58-.38L823.8,150.46h-1.53L799.88,260.23a.63.63,0,0,1-.62.51H733.88a.62.62,0,0,1-.61-.76L784.8,9.69a.63.63,0,0,1,.62-.51h65a.63.63,0,0,1,.62.76l-20.54,99.53h3.28l81.07-100a.63.63,0,0,1,.49-.24h80.8a.63.63,0,0,1,.47,1.06L888.51,129.56l67,130.26a.63.63,0,0,1-.56.92Z"/><path d="M613.71,260.3l-29.64-95.41H566l-19.38,95.34a.62.62,0,0,1-.61.51H480.36a.63.63,0,0,1-.62-.76L532.19,9.69a.63.63,0,0,1,.62-.51h97a123.2,123.2,0,0,1,34.93,4.59,70.83,70.83,0,0,1,25.37,13,52.24,52.24,0,0,1,15.1,20.63c3.38,8.27,4.86,17.92,4.4,28.69-.89,20.6-6.21,37.73-15.84,50.91a72.42,72.42,0,0,1-38.26,27l-5.31,1.62,42.5,104.23a.63.63,0,0,1-.58.87H614.31A.62.62,0,0,1,613.71,260.3Zm-37.9-144.58H598.6c11.66,0,21.13-2.19,28.14-6.51,7.7-4.73,11.82-12.26,12.25-22.38.53-12.12-4.9-17.89-9.54-20.59-5.81-3.37-13.34-5-23-5H587.23Z"/><path d="M1033.91,235.54a1,1,0,0,0-.74-1.09l-1.32-.31.92-1a1,1,0,0,0,0-1.32c-1.88-2.11-5-2.77-8.39-1.76a7,7,0,0,0-1.86.92,6.63,6.63,0,0,0,.26-1.72c0-3.52-1.54-6.33-4.1-7.53a1,1,0,0,0-1.26.4l-.68,1.17-.67-1.17a1,1,0,0,0-1.26-.4c-2.57,1.2-4.1,4-4.1,7.53A6.23,6.23,0,0,0,1011,231a7.08,7.08,0,0,0-1.87-.92c-3.37-1-6.5-.35-8.39,1.76a1,1,0,0,0,0,1.32l.93,1-1.32.31a1,1,0,0,0-.74,1.09c.4,2.8,2.65,5.08,6,6.1a6.26,6.26,0,0,0,1.71.25,7.23,7.23,0,0,0-1.87,1.91c-2,3.07-2.21,6.39-.63,8.87a1,1,0,0,0,1.28.34l1.3-.68-.07,1.46a1,1,0,0,0,.85,1,6.36,6.36,0,0,0,.87.06c2.61,0,5.14-1.58,6.92-4.34a7.2,7.2,0,0,0,.76-1.79,6.87,6.87,0,0,0,.77,1.79c1.77,2.76,4.31,4.34,6.91,4.34a6.36,6.36,0,0,0,.87-.06,1,1,0,0,0,.86-1l-.07-1.46,1.29.67a1,1,0,0,0,1.29-.34c1.58-2.47,1.34-5.79-.63-8.86a7.23,7.23,0,0,0-1.87-1.91,6.19,6.19,0,0,0,1.7-.25C1031.25,240.62,1033.5,238.34,1033.91,235.54Zm-20.47,3.79a3.29,3.29,0,0,1,1.22-2.55l.29-.24.33-.17a3.24,3.24,0,0,1,3,0l.33.17.29.24a3.31,3.31,0,0,1,1.21,2.61l-.05.54-.1.36a3.29,3.29,0,0,1-2.62,2.3l-.55.1-.54-.1a3.28,3.28,0,0,1-2.62-2.3l-.11-.37Zm1.54-15.77,1.78,3.08,1.78-3.08c1.64,1.05,2.59,3.14,2.59,5.72,0,2-1.39,3.95-2.71,5.36a4.86,4.86,0,0,0-3.32,0c-1.31-1.41-2.71-3.37-2.71-5.36C1012.39,226.7,1013.35,224.61,1015,223.56Zm-13.59,12.36,3.47-.82-2.44-2.59c1.48-1.26,3.75-1.58,6.22-.83,2,.61,3.58,2.76,4.45,4.3a5,5,0,0,0-1.31,3.14c-1.65.78-3.82,1.48-5.66.93C1003.65,239.3,1001.93,237.78,1001.39,235.92Zm13.21,13.72c-1.46,2.28-3.49,3.57-5.53,3.57h0l.17-3.67-3.27,1.69c-.87-1.86-.54-4.25.93-6.53,1.12-1.76,3.44-2.7,5.42-3.2a4.91,4.91,0,0,0,3.05,2.6C1015.59,245.85,1015.61,248.06,1014.6,249.64Zm13,1.59-3.27-1.69.17,3.67h0c-2,0-4.06-1.29-5.52-3.57a8.43,8.43,0,0,1-.75-5.54,5,5,0,0,0,3.05-2.6c2,.5,4.3,1.44,5.42,3.2C1028.12,247,1028.44,249.38,1027.58,251.23Zm-5.84-12.11a4.93,4.93,0,0,0-1.31-3.14c.88-1.54,2.43-3.69,4.45-4.3,2.48-.75,4.75-.43,6.23.83l-2.44,2.59,3.46.82c-.53,1.87-2.26,3.38-4.73,4.13C1025.58,240.6,1023.39,239.9,1021.74,239.12Z"/><path d="M1016.76,264.62A25.58,25.58,0,1,1,1042.34,239,25.62,25.62,0,0,1,1016.76,264.62Zm0-46.87A21.29,21.29,0,1,0,1038,239,21.31,21.31,0,0,0,1016.76,217.75Z"/></g></g></svg>